<svg width="100" height="100" viewBox="0 0 100 100" fill="none" xmlns="http://www.w3.org/2000/svg">
<rect width="100" height="100" rx="8" fill="#9A4993"/>
<path d="M58.9488 57.0966C56.3353 61.7272 51.3637 64.8807 45.6534 64.8807C39.9715 64.8807 35.0284 61.7841 32.4148 57.1818C31.1364 54.9375 30.3976 52.3807 30.3976 49.625C30.3976 41.1875 37.2158 34.3693 45.6534 34.3693C51.2784 34.3693 56.1932 37.4375 58.8353 41.9829L72.1591 34.3124C66.8467 25.1648 56.9602 19 45.625 19C28.6931 19 15 32.7216 15 49.625C15 55.1648 16.4772 60.3921 19.0625 64.8807C24.3465 74.0569 34.2897 80.25 45.6534 80.25C57.0455 80.25 66.9887 74.0285 72.2727 64.7955L58.9488 57.0966ZM75.7954 42.3807H72.7556V57.0682H75.7954V42.3807ZM82.5284 42.3807H79.4886V57.0682H82.5284V42.3807Z" fill="white"/>
<path d="M85 44.8523H70.3125V47.8921H85V44.8523ZM85 51.5568H70.3125V54.5966H85V51.5568Z" fill="white"/>
</svg>
