<svg width="100" height="100" viewBox="0 0 100 100" fill="none" xmlns="http://www.w3.org/2000/svg">
<rect width="100" height="100" rx="8" fill="#DE4C36"/>
<path d="M27.2367 10L40.7566 23.5199C43.8986 22.4584 47.5011 23.1704 50.0059 25.6752C52.5224 28.1955 53.2292 31.829 52.1419 34.9813L65.1717 48.0111C68.324 46.9251 71.9613 47.628 74.479 50.1496C77.9977 53.667 77.9977 59.368 74.479 62.8879C70.9591 66.4078 65.2581 66.4078 61.7369 62.8879C59.0902 60.2386 58.4362 56.3511 59.7763 53.0904L47.6249 40.939L47.6236 72.9163C48.4814 73.3419 49.2914 73.9082 50.0059 74.6201C53.5246 78.1375 53.5246 83.8385 50.0059 87.361C46.486 90.8797 40.7824 90.8797 37.2676 87.361C33.749 83.8385 33.749 78.1375 37.2676 74.6201C38.137 73.7521 39.143 73.0956 40.2162 72.6544V40.3792C39.143 39.9407 38.1383 39.288 37.2676 38.4135C34.6016 35.7513 33.9605 31.8393 35.3265 28.5657L22 15.2367" fill="white"/>
</svg>
