<svg width="100" height="100" viewBox="0 0 100 100" fill="none" xmlns="http://www.w3.org/2000/svg">
<rect width="100" height="100" rx="8" fill="#F7DF1E"/>
<path d="M67.1859 78.6078C69.0197 81.5815 71.4056 83.7673 75.6254 83.7673C79.1703 83.7673 81.4348 82.0077 81.4348 79.5765C81.4348 76.6631 79.1081 75.6312 75.2063 73.9363L73.0675 73.0249C66.8939 70.4129 62.7927 67.1407 62.7927 60.2231C62.7927 53.8509 67.6815 49 75.3219 49C80.7613 49 84.6718 50.8801 87.4898 55.8028L80.8278 60.0509C79.361 57.4389 77.7786 56.4098 75.3219 56.4098C72.8161 56.4098 71.2279 57.9885 71.2279 60.0509C71.2279 62.5998 72.8175 63.6317 76.4881 65.2104L78.6269 66.1203C85.8959 69.216 90 72.3719 90 79.4674C90 87.117 83.9493 91.3077 75.8234 91.3077C67.8781 91.3077 62.745 87.5475 60.2334 82.6191L67.1859 78.6078ZM36.964 79.344C38.308 81.7121 39.5306 83.7142 42.47 83.7142C45.2807 83.7142 47.0539 82.622 47.0539 78.3753V49.4851H55.609V78.4901C55.609 87.2877 50.4152 91.2919 42.8341 91.2919C35.9842 91.2919 32.0174 87.7714 30 83.5312L36.964 79.344Z" fill="black"/>
</svg>
