<svg width="100" height="100" viewBox="0 0 100 100" fill="none" xmlns="http://www.w3.org/2000/svg">
<rect width="100" height="100" rx="8" fill="#FF2D20"/>
<path d="M89.9549 27.6311C89.9846 27.7409 90 27.8541 90 27.9679V45.6454C90 46.1072 89.7529 46.5338 89.3523 46.7635L74.5152 55.3058V72.2374C74.5152 72.6982 74.2704 73.1235 73.8708 73.3555L42.8997 91.1845C42.8288 91.2248 42.7514 91.2506 42.6741 91.278C42.6451 91.2876 42.6177 91.3053 42.5871 91.3134C42.3706 91.3704 42.143 91.3704 41.9265 91.3134C41.8911 91.3037 41.8589 91.2844 41.825 91.2715C41.7541 91.2457 41.68 91.2232 41.6124 91.1845L10.6477 73.3555C10.2473 73.1255 10 72.6991 10 72.2374V19.2048C10 19.0888 10.0161 18.976 10.0451 18.8665C10.0548 18.8294 10.0773 18.7956 10.0902 18.7585C10.1144 18.6909 10.1369 18.6216 10.1724 18.5587C10.1966 18.5169 10.232 18.483 10.261 18.4443C10.2981 18.3928 10.3319 18.3396 10.3754 18.2945C10.4125 18.2575 10.4608 18.2301 10.5027 18.1978C10.5494 18.1592 10.5913 18.1173 10.6445 18.0867H10.6461L26.1292 9.17219C26.5282 8.9426 27.0192 8.9426 27.4181 9.17219L42.9013 18.0867H42.9045C42.9561 18.1189 42.9996 18.1592 43.0463 18.1962C43.0882 18.2285 43.1349 18.2575 43.1719 18.2929C43.2171 18.3396 43.2493 18.3928 43.288 18.4443C43.3153 18.483 43.3524 18.5169 43.375 18.5587C43.412 18.6232 43.433 18.6909 43.4587 18.7585C43.4716 18.7956 43.4942 18.8294 43.5038 18.8681C43.5335 18.9779 43.5487 19.0911 43.549 19.2048V52.3284L56.451 44.8994V27.9662C56.451 27.8535 56.4672 27.7391 56.4962 27.6311C56.5074 27.5925 56.5284 27.5586 56.5413 27.5216C56.567 27.4539 56.5896 27.3846 56.625 27.3218C56.6492 27.2799 56.6847 27.2461 56.712 27.2074C56.7507 27.1558 56.7829 27.1027 56.8281 27.0576C56.8651 27.0205 56.9118 26.9931 56.9537 26.9609C57.0021 26.9222 57.0439 26.8803 57.0955 26.8497H57.0971L72.5819 17.9352C72.9808 17.7053 73.4719 17.7053 73.8708 17.9352L89.3539 26.8497C89.4087 26.8819 89.4506 26.9222 89.4989 26.9593C89.5392 26.9915 89.5859 27.0205 89.623 27.0559C89.6681 27.1027 89.7003 27.1558 89.739 27.2074C89.768 27.2461 89.8034 27.2799 89.826 27.3218C89.8631 27.3846 89.884 27.4539 89.9098 27.5216C89.9243 27.5586 89.9452 27.5925 89.9549 27.6311ZM87.4189 44.8994V30.1993L82.0006 33.3185L74.5152 37.6283V52.3284L87.4205 44.8994H87.4189ZM71.9358 71.4914V56.7816L64.5728 60.9867L43.5473 72.9866V87.8349L71.9358 71.4914ZM12.5811 21.4363V71.4914L40.9663 87.8333V72.9882L26.1373 64.5957L26.1324 64.5925L26.126 64.5893C26.076 64.5603 26.0342 64.5184 25.9874 64.4829C25.9472 64.4507 25.9004 64.4249 25.865 64.3895L25.8618 64.3847C25.8199 64.3444 25.7909 64.2944 25.7554 64.2493C25.7232 64.2058 25.6845 64.1688 25.6588 64.1237L25.6571 64.1188C25.6281 64.0705 25.6104 64.0125 25.5895 63.9577C25.5685 63.9094 25.5411 63.8643 25.5283 63.8127V63.8111C25.5121 63.7499 25.5089 63.6854 25.5025 63.6226C25.496 63.5742 25.4831 63.5259 25.4831 63.4776V63.4744V28.8653L17.9994 24.5538L12.5811 21.4379V21.4363ZM26.7753 11.779L13.8748 19.2048L26.7721 26.6306L39.6709 19.2032L26.7721 11.779H26.7753ZM33.4841 58.1221L40.9679 53.8139V21.4363L35.5496 24.5554L28.0642 28.8653V61.2429L33.4841 58.1221ZM73.2263 20.5421L60.3275 27.9679L73.2263 35.3936L86.1236 27.9662L73.2263 20.5421ZM71.9358 37.6283L64.4504 33.3185L59.0321 30.1993V44.8994L66.5159 49.2076L71.9358 52.3284V37.6283ZM42.2552 70.7551L61.1749 59.954L70.6324 54.5567L57.7432 47.1357L42.9029 55.6796L29.3773 63.4663L42.2552 70.7551Z" fill="white"/>
</svg>
