<svg width="100" height="100" viewBox="0 0 100 100" fill="none" xmlns="http://www.w3.org/2000/svg">
<rect width="100" height="100" rx="8" fill="#6181B6"/>
<path d="M28.195 38.4556C31.6773 38.4848 34.2007 39.4888 35.7651 41.4659C37.3296 43.443 37.8458 46.1435 37.3146 49.5673C37.1083 51.1318 36.6505 52.6662 35.9422 54.1714C35.2631 55.6766 34.3193 57.0339 33.1089 58.2443C31.633 59.7787 30.0543 60.7526 28.3721 61.1661C26.6898 61.5796 24.9482 61.7859 23.1482 61.7859H17.8358L16.1535 70.1972H10L16.3306 38.4556H28.195ZM80.6783 38.4556C84.1606 38.4848 86.684 39.4888 88.2485 41.4659C89.813 43.443 90.3292 46.1435 89.7979 49.5673C89.5916 51.1318 89.1339 52.6662 88.4256 54.1714C87.7465 55.6766 86.8026 57.0339 85.5923 58.2443C84.1163 59.7787 82.5377 60.7526 80.8554 61.1661C79.1731 61.5796 77.4316 61.7859 75.6315 61.7859H70.3191L68.6369 70.1972H62.4833L68.814 38.4556H80.6783ZM50.4335 30L48.707 38.4556H54.1965C57.2069 38.5149 59.4496 39.1347 60.9255 40.3149C62.4307 41.4952 62.8734 43.7387 62.2536 47.044L59.2876 61.7859H53.0898L55.923 47.708C56.2179 46.2321 56.1293 45.1846 55.6574 44.5648C55.1855 43.9451 54.1673 43.6352 52.6028 43.6352L47.6888 43.5909L44.0587 61.7859H37.9494L44.3243 30H50.4335ZM23.4138 43.5024C23.0597 43.5316 22.7205 43.5466 22.3956 43.5466L21.5013 43.5466L18.854 56.7834C19.0311 56.8126 19.2082 56.8276 19.3852 56.8276H20.005C22.8383 56.8569 25.1996 56.577 27.0882 55.9865C28.9768 55.3667 30.2464 53.2125 30.8954 49.5231C31.4267 46.4242 30.8954 44.6383 29.3017 44.1664C27.7372 43.6945 25.7752 43.4731 23.4138 43.5024ZM75.8972 43.5024C75.543 43.5316 75.2039 43.5466 74.8789 43.5466L73.9845 43.5466L71.3373 56.7834C71.5144 56.8126 71.6915 56.8276 71.8686 56.8276H72.4884C75.3216 56.8569 77.683 56.577 79.5716 55.9865C81.4601 55.3667 82.7298 53.2125 83.3788 49.5231C83.91 46.4242 83.3788 44.6383 81.7851 44.1664C80.2206 43.6945 78.2585 43.4731 75.8972 43.5024Z" fill="white"/>
</svg>
