<svg width="100" height="100" viewBox="0 0 100 100" fill="none" xmlns="http://www.w3.org/2000/svg">
<rect width="100" height="100" rx="8" fill="#3689EB"/>
<path d="M28.3097 44.2756C28.196 43.1297 27.7083 42.2396 26.8466 41.6051C25.9848 40.9706 24.8153 40.6534 23.3381 40.6534C22.3343 40.6534 21.4867 40.7955 20.7955 41.0795C20.1042 41.3542 19.5739 41.7377 19.2045 42.2301C18.8447 42.7225 18.6648 43.2812 18.6648 43.9062C18.6458 44.4271 18.7547 44.8816 18.9915 45.2699C19.2377 45.6581 19.5739 45.9943 20 46.2784C20.4261 46.553 20.9186 46.7945 21.4773 47.0028C22.036 47.2017 22.6326 47.3722 23.267 47.5142L25.8807 48.1392C27.1496 48.4233 28.3144 48.8021 29.375 49.2756C30.4356 49.7491 31.3542 50.3314 32.1307 51.0227C32.9072 51.714 33.5085 52.5284 33.9347 53.4659C34.3703 54.4034 34.5928 55.4782 34.6023 56.6903C34.5928 58.4706 34.1383 60.0142 33.2386 61.321C32.3485 62.6184 31.0606 63.6269 29.375 64.3466C27.6989 65.0568 25.6771 65.4119 23.3097 65.4119C20.9612 65.4119 18.9157 65.0521 17.1733 64.3324C15.4403 63.6127 14.0862 62.5473 13.1108 61.1364C12.1449 59.7159 11.6383 57.9593 11.5909 55.8665H17.5426C17.6089 56.8419 17.8883 57.6562 18.3807 58.3097C18.8826 58.9536 19.5502 59.4413 20.3835 59.7727C21.2263 60.0947 22.178 60.2557 23.2386 60.2557C24.2803 60.2557 25.1847 60.1042 25.9517 59.8011C26.7282 59.4981 27.3295 59.0767 27.7557 58.5369C28.1818 57.9972 28.3949 57.3769 28.3949 56.6761C28.3949 56.0227 28.2008 55.4735 27.8125 55.0284C27.4337 54.5833 26.875 54.2045 26.1364 53.892C25.4072 53.5795 24.5123 53.2955 23.4517 53.0398L20.2841 52.2443C17.8314 51.6477 15.8949 50.715 14.4744 49.446C13.054 48.1771 12.3485 46.4678 12.358 44.3182C12.3485 42.5568 12.8172 41.018 13.7642 39.7017C14.7206 38.3854 16.0322 37.358 17.6989 36.6193C19.3655 35.8807 21.2595 35.5114 23.3807 35.5114C25.5398 35.5114 27.4242 35.8807 29.0341 36.6193C30.6534 37.358 31.9129 38.3854 32.8125 39.7017C33.7121 41.018 34.1761 42.5426 34.2045 44.2756H28.3097ZM49.7195 54.8864H54.9467L57.5746 58.267L60.1598 61.2784L65.032 67.3864H59.2933L55.9411 63.267L54.2223 60.8239L49.7195 54.8864ZM65.4723 50.4545C65.4723 53.6269 64.871 56.3258 63.6683 58.5511C62.4751 60.7765 60.8464 62.4763 58.782 63.6506C56.727 64.8153 54.4164 65.3977 51.8501 65.3977C49.2649 65.3977 46.9448 64.8106 44.8899 63.6364C42.835 62.4621 41.2109 60.7623 40.0178 58.5369C38.8246 56.3116 38.228 53.6174 38.228 50.4545C38.228 47.2822 38.8246 44.5833 40.0178 42.358C41.2109 40.1326 42.835 38.4375 44.8899 37.2727C46.9448 36.0985 49.2649 35.5114 51.8501 35.5114C54.4164 35.5114 56.727 36.0985 58.782 37.2727C60.8464 38.4375 62.4751 40.1326 63.6683 42.358C64.871 44.5833 65.4723 47.2822 65.4723 50.4545ZM59.2365 50.4545C59.2365 48.3996 58.9287 46.6667 58.3132 45.2557C57.7071 43.8447 56.8501 42.7746 55.7422 42.0455C54.6342 41.3163 53.3369 40.9517 51.8501 40.9517C50.3634 40.9517 49.0661 41.3163 47.9581 42.0455C46.8501 42.7746 45.9884 43.8447 45.3729 45.2557C44.7668 46.6667 44.4638 48.3996 44.4638 50.4545C44.4638 52.5095 44.7668 54.2424 45.3729 55.6534C45.9884 57.0644 46.8501 58.1345 47.9581 58.8636C49.0661 59.5928 50.3634 59.9574 51.8501 59.9574C53.3369 59.9574 54.6342 59.5928 55.7422 58.8636C56.8501 58.1345 57.7071 57.0644 58.3132 55.6534C58.9287 54.2424 59.2365 52.5095 59.2365 50.4545ZM70.0284 65V35.9091H76.179V59.929H88.6506V65H70.0284Z" fill="white"/>
</svg>
